REM DIRINDEX 1\3,1\4,1\5,1\6,1\2\7,1\2\8,1\2\9,1\10
REM DIRNAME cjc056,folder01,folder02,folder03,folder04,folder05,folder06,folder07,folder08,folder09
TITLE ""
FILE "2-14 Level 4-661-674.mp3" MP3
  TRACK 01 AUDIO
    TITLE "0:"
    INDEX 01 00:00:00
  TRACK 02 AUDIO
    TITLE "7:cjc056_2262"
    INDEX 01 00:00:05
  TRACK 03 AUDIO
    TITLE "0:"
    INDEX 01 00:01:11
  TRACK 04 AUDIO
    TITLE "8:cjc056_2263"
    INDEX 01 00:01:22
  TRACK 05 AUDIO
    TITLE "0:"
    INDEX 01 00:02:18
  TRACK 06 AUDIO
    TITLE "9:cjc056_2264"
    INDEX 01 00:02:32
  TRACK 07 AUDIO
    TITLE "0:"
    INDEX 01 00:04:21
  TRACK 08 AUDIO
    TITLE "7:cjc056_2265"
    INDEX 01 00:04:74
  TRACK 09 AUDIO
    TITLE "0:"
    INDEX 01 00:06:14
  TRACK 10 AUDIO
    TITLE "8:cjc056_2266"
    INDEX 01 00:06:30
  TRACK 11 AUDIO
    TITLE "0:"
    INDEX 01 00:07:51
  TRACK 12 AUDIO
    TITLE "9:cjc056_2267"
    INDEX 01 00:07:64
  TRACK 13 AUDIO
    TITLE "0:"
    INDEX 01 00:09:40
  TRACK 14 AUDIO
    TITLE "7:cjc056_2268"
    INDEX 01 00:10:18
  TRACK 15 AUDIO
    TITLE "0:"
    INDEX 01 00:11:27
  TRACK 16 AUDIO
    TITLE "8:cjc056_2269"
    INDEX 01 00:11:39
  TRACK 17 AUDIO
    TITLE "0:"
    INDEX 01 00:12:61
  TRACK 18 AUDIO
    TITLE "9:cjc056_2270"
    INDEX 01 00:13:00
  TRACK 19 AUDIO
    TITLE "0:"
    INDEX 01 00:15:09
  TRACK 20 AUDIO
    TITLE "7:cjc056_2271"
    INDEX 01 00:15:62
  TRACK 21 AUDIO
    TITLE "0:"
    INDEX 01 00:16:69
  TRACK 22 AUDIO
    TITLE "8:cjc056_2272"
    INDEX 01 00:17:08
  TRACK 23 AUDIO
    TITLE "0:"
    INDEX 01 00:18:39
  TRACK 24 AUDIO
    TITLE "9:cjc056_2273"
    INDEX 01 00:18:50
  TRACK 25 AUDIO
    TITLE "0:"
    INDEX 01 00:20:73
  TRACK 26 AUDIO
    TITLE "7:cjc056_2274"
    INDEX 01 00:21:49
  TRACK 27 AUDIO
    TITLE "0:"
    INDEX 01 00:22:54
  TRACK 28 AUDIO
    TITLE "8:cjc056_2275"
    INDEX 01 00:22:68
  TRACK 29 AUDIO
    TITLE "0:"
    INDEX 01 00:24:08
  TRACK 30 AUDIO
    TITLE "9:cjc056_2276"
    INDEX 01 00:24:24
  TRACK 31 AUDIO
    TITLE "0:"
    INDEX 01 00:26:17
  TRACK 32 AUDIO
    TITLE "7:cjc056_2277"
    INDEX 01 00:26:67
  TRACK 33 AUDIO
    TITLE "0:"
    INDEX 01 00:28:02
  TRACK 34 AUDIO
    TITLE "8:cjc056_2278"
    INDEX 01 00:28:15
  TRACK 35 AUDIO
    TITLE "0:"
    INDEX 01 00:29:38
  TRACK 36 AUDIO
    TITLE "9:cjc056_2279"
    INDEX 01 00:29:50
  TRACK 37 AUDIO
    TITLE "0:"
    INDEX 01 00:31:29
  TRACK 38 AUDIO
    TITLE "7:cjc056_2280"
    INDEX 01 00:32:05
  TRACK 39 AUDIO
    TITLE "0:"
    INDEX 01 00:33:34
  TRACK 40 AUDIO
    TITLE "8:cjc056_2281"
    INDEX 01 00:33:48
  TRACK 41 AUDIO
    TITLE "0:"
    INDEX 01 00:34:67
  TRACK 42 AUDIO
    TITLE "9:cjc056_2282"
    INDEX 01 00:35:06
  TRACK 43 AUDIO
    TITLE "0:"
    INDEX 01 00:37:05
  TRACK 44 AUDIO
    TITLE "7:cjc056_2283"
    INDEX 01 00:37:56
  TRACK 45 AUDIO
    TITLE "0:"
    INDEX 01 00:38:59
  TRACK 46 AUDIO
    TITLE "8:cjc056_2284"
    INDEX 01 00:38:73
  TRACK 47 AUDIO
    TITLE "0:"
    INDEX 01 00:40:05
  TRACK 48 AUDIO
    TITLE "9:cjc056_2285"
    INDEX 01 00:40:19
  TRACK 49 AUDIO
    TITLE "0:"
    INDEX 01 00:42:02
  TRACK 50 AUDIO
    TITLE "7:cjc056_2286"
    INDEX 01 00:42:57
  TRACK 51 AUDIO
    TITLE "0:"
    INDEX 01 00:43:46
  TRACK 52 AUDIO
    TITLE "8:cjc056_2287"
    INDEX 01 00:43:60
  TRACK 53 AUDIO
    TITLE "0:"
    INDEX 01 00:45:00
  TRACK 54 AUDIO
    TITLE "9:cjc056_2288"
    INDEX 01 00:45:14
  TRACK 55 AUDIO
    TITLE "0:"
    INDEX 01 00:46:37
  TRACK 56 AUDIO
    TITLE "7:cjc056_2289"
    INDEX 01 00:47:15
  TRACK 57 AUDIO
    TITLE "0:"
    INDEX 01 00:48:12
  TRACK 58 AUDIO
    TITLE "8:cjc056_2290"
    INDEX 01 00:48:24
  TRACK 59 AUDIO
    TITLE "0:"
    INDEX 01 00:49:39
  TRACK 60 AUDIO
    TITLE "9:cjc056_2291"
    INDEX 01 00:49:53
  TRACK 61 AUDIO
    TITLE "0:"
    INDEX 01 00:51:32
  TRACK 62 AUDIO
    TITLE "7:cjc056_2292"
    INDEX 01 00:52:10
  TRACK 63 AUDIO
    TITLE "0:"
    INDEX 01 00:53:00
  TRACK 64 AUDIO
    TITLE "8:cjc056_2293"
    INDEX 01 00:53:15
  TRACK 65 AUDIO
    TITLE "0:"
    INDEX 01 00:54:34
  TRACK 66 AUDIO
    TITLE "9:cjc056_2294"
    INDEX 01 00:54:50
  TRACK 67 AUDIO
    TITLE "0:"
    INDEX 01 00:56:51
  TRACK 68 AUDIO
    TITLE "7:cjc056_2295"
    INDEX 01 00:57:25
  TRACK 69 AUDIO
    TITLE "0:"
    INDEX 01 00:58:26
  TRACK 70 AUDIO
    TITLE "8:cjc056_2296"
    INDEX 01 00:58:40
  TRACK 71 AUDIO
    TITLE "0:"
    INDEX 01 01:00:17
  TRACK 72 AUDIO
    TITLE "9:cjc056_2297"
    INDEX 01 01:00:27
  TRACK 73 AUDIO
    TITLE "0:"
    INDEX 01 01:02:32
  TRACK 74 AUDIO
    TITLE "7:cjc056_2298"
    INDEX 01 01:03:08
  TRACK 75 AUDIO
    TITLE "0:"
    INDEX 01 01:04:03
  TRACK 76 AUDIO
    TITLE "8:cjc056_2299"
    INDEX 01 01:04:19
  TRACK 77 AUDIO
    TITLE "0:"
    INDEX 01 01:05:44
  TRACK 78 AUDIO
    TITLE "9:cjc056_2300"
    INDEX 01 01:05:56
  TRACK 79 AUDIO
    TITLE "0:"
    INDEX 01 01:07:39
  TRACK 80 AUDIO
    TITLE "7:cjc056_2301"
    INDEX 01 01:08:17
  TRACK 81 AUDIO
    TITLE "0:"
    INDEX 01 01:09:18
  TRACK 82 AUDIO
    TITLE "8:cjc056_2302"
    INDEX 01 01:09:34
  TRACK 83 AUDIO
    TITLE "0:"
    INDEX 01 01:10:55
  TRACK 84 AUDIO
    TITLE "9:cjc056_2303"
    INDEX 01 01:10:69
  TRACK 85 AUDIO
    TITLE "0:"
    INDEX 01 01:13:06
